# xmcd
#
# Track frame offsets:
#	150
#	18179
#	45054
#	60319
#	87987
#	122112
#	141529
#	156539
#	190369
#	209210
#
# Disc length: 3102 seconds
#
# Revision: 1
# Processed by: cddbd v1.5.2PL0 Copyright (c) Steve Scherf et al.
# Submitted via: audiograbber 1.83.01
#
DISCID=8e0c1c0a
DTITLE=Rick Derringer - Knighted By The Blues
DYEAR=2009
DGENRE=Bluesrock
TTITLE0=The Mess Around
TTITLE1=Sometimes
TTITLE2=Give Me Some Money
TTITLE3=If 6 Was 9
TTITLE4=Knighted By The Blues
TTITLE5=Jenda
TTITLE6=Cat On A Hot Tin Roof
TTITLE7=My Gals Kinda Crazy
TTITLE8=Time To Go
TTITLE9=Funny I Still Love You
EXTD=
EXTT0=
EXTT1=
EXTT2=
EXTT3=
EXTT4=
EXTT5=
EXTT6=
EXTT7=
EXTT8=
EXTT9=
PLAYORDER=
